<?xml version="1.0" encoding="utf-8"?>
<!-- Generator: Adobe Illustrator 25.2.3, SVG Export Plug-In . SVG Version: 6.00 Build 0)  -->
<svg version="1.1" id="레이어_1" xmlns="http://www.w3.org/2000/svg" xmlns:xlink="http://www.w3.org/1999/xlink" x="0px"
	 y="0px" viewBox="0 0 200 200" style="enable-background:new 0 0 200 200;" xml:space="preserve">
<style type="text/css">
	.st0{fill:#AA83CC;}
	.st1{fill:#8F5EA3;}
</style>
<path class="st0" d="M88.47,75.13L81.66,52.9C67.11,58.58,55.87,70.85,51.6,86.04l22.66,5.01C76.62,84,81.8,78.25,88.47,75.13z"/>
<path class="st1" d="M99.91,49.46c-5.38,0-10.56,0.86-15.42,2.43l6.78,22.13c2.72-0.92,5.62-1.42,8.64-1.42
	c14.94,0,27.05,12.11,27.05,27.05s-12.11,27.05-27.05,27.05s-27.05-12.11-27.05-27.05c0-1.96,0.21-3.86,0.61-5.7l-22.59-5
	c-0.75,3.45-1.15,7.03-1.15,10.7c0,27.72,22.47,50.19,50.19,50.19s50.19-22.47,50.19-50.19S127.62,49.46,99.91,49.46z"/>
</svg>
