<?xml version="1.0" encoding="utf-8"?>
<!-- Generator: Adobe Illustrator 25.2.3, SVG Export Plug-In . SVG Version: 6.00 Build 0)  -->
<svg version="1.1" id="레이어_1" xmlns="http://www.w3.org/2000/svg" xmlns:xlink="http://www.w3.org/1999/xlink" x="0px"
	 y="0px" viewBox="0 0 200 200" style="enable-background:new 0 0 200 200;" xml:space="preserve">
<style type="text/css">
	.st0{fill:#AA83CC;}
	.st1{fill:#8F5EA3;}
</style>
<g>
	<path class="st0" d="M33.43,146.14c-1.85,0-3.72-0.16-5.62-0.5l0.71-3.94c15.26,2.74,29.6-8.12,39.07-16.52
		c8.68-7.71,17.35-16.04,25.74-24.1c2.72-2.61,5.44-5.22,8.15-7.81c1.61-1.53,3.22-3.09,4.83-4.65c9.46-9.14,19.23-18.59,30.7-25.22
		c10.7-6.19,22.91-9.27,33.49-8.49l-0.3,3.99c-9.8-0.74-21.17,2.17-31.19,7.96c-11.04,6.38-20.64,15.66-29.92,24.64
		c-1.62,1.57-3.24,3.13-4.85,4.67c-2.71,2.58-5.42,5.19-8.14,7.8c-8.42,8.08-17.12,16.44-25.86,24.2
		C61.28,136.13,48.15,146.14,33.43,146.14z"/>
	<circle class="st1" cx="28.17" cy="143.68" r="7.77"/>
	<circle class="st1" cx="171.65" cy="55.62" r="7.77"/>
</g>
</svg>
