<?xml version="1.0" encoding="utf-8"?>
<!-- Generator: Adobe Illustrator 25.2.3, SVG Export Plug-In . SVG Version: 6.00 Build 0)  -->
<svg version="1.1" id="레이어_1" xmlns="http://www.w3.org/2000/svg" xmlns:xlink="http://www.w3.org/1999/xlink" x="0px"
	 y="0px" viewBox="0 0 200 200" style="enable-background:new 0 0 200 200;" xml:space="preserve">
<style type="text/css">
	.st0{fill:#F3EBFC;}
	.st1{fill:#8F5EA3;}
	.st2{fill:#D9C7F2;}
</style>
<g>
	<g>
		<polygon class="st0" points="99.83,54.83 52.28,89.38 70.45,145.28 129.22,145.28 147.39,89.38 		"/>
		<path class="st1" d="M130.31,146.78H69.36L50.52,88.81l49.32-35.83l49.32,35.83L130.31,146.78z M71.54,143.78h56.6l17.49-53.83
			L99.83,56.69L54.05,89.95L71.54,143.78z"/>
	</g>
	<circle class="st1" cx="99.83" cy="55.06" r="7.96"/>
	<circle class="st1" cx="147.07" cy="89.12" r="7.96"/>
	<circle class="st1" cx="52.93" cy="89.12" r="7.96"/>
	<circle class="st1" cx="70.41" cy="144.94" r="7.96"/>
	<circle class="st1" cx="128.81" cy="144.94" r="7.96"/>
	<g>
		<polygon class="st2" points="113.4,116.71 90.87,115.02 76.5,94.04 97.73,61.02 103.82,61.02 131.79,91.71 		"/>
		<path class="st1" d="M113.76,117.48l-23.31-1.74L75.6,94.06l21.73-33.78h6.83l0.22,0.24l28.38,31.15L113.76,117.48z M91.29,114.3
			l21.76,1.62l17.78-24.16l-27.33-29.99h-5.35L77.4,94.03L91.29,114.3z"/>
	</g>
</g>
</svg>
